<?xml version="1.0" encoding="UTF-8" standalone="no"?>
<svg
   xmlns:dc="http://purl.org/dc/elements/1.1/"
   xmlns:cc="http://creativecommons.org/ns#"
   xmlns:rdf="http://www.w3.org/1999/02/22-rdf-syntax-ns#"
   xmlns:svg="http://www.w3.org/2000/svg"
   xmlns="http://www.w3.org/2000/svg"
   xmlns:sodipodi="http://sodipodi.sourceforge.net/DTD/sodipodi-0.dtd"
   xmlns:inkscape="http://www.inkscape.org/namespaces/inkscape"
   aria-hidden="true"
   focusable="false"
   data-prefix="fas"
   data-icon="hourglass-start"
   class="svg-inline--fa fa-hourglass-start fa-w-12"
   role="img"
   viewBox="0 0 504 632"
   version="1.1"
   id="svg4"
   sodipodi:docname="icon_calendar-check.svg"
   width="504"
   height="632"
   inkscape:version="1.0.1 (3bc2e813f5, 2020-09-07)">
  <metadata
     id="metadata10">
    <rdf:RDF>
      <cc:Work
         rdf:about="">
        <dc:format>image/svg+xml</dc:format>
        <dc:type
           rdf:resource="http://purl.org/dc/dcmitype/StillImage" />
        <dc:title></dc:title>
      </cc:Work>
    </rdf:RDF>
  </metadata>
  <defs
     id="defs8" />
  <sodipodi:namedview
     pagecolor="#ffffff"
     bordercolor="#666666"
     borderopacity="1"
     objecttolerance="10"
     gridtolerance="10"
     guidetolerance="10"
     inkscape:pageopacity="0"
     inkscape:pageshadow="2"
     inkscape:window-width="2348"
     inkscape:window-height="1450"
     id="namedview6"
     showgrid="false"
     fit-margin-bottom="60"
     fit-margin-top="60"
     lock-margins="true"
     fit-margin-left="60"
     fit-margin-right="60"
     inkscape:zoom="1.1132813"
     inkscape:cx="70.41213"
     inkscape:cy="255.87927"
     inkscape:window-x="3402"
     inkscape:window-y="258"
     inkscape:window-maximized="0"
     inkscape:current-layer="layer3" />
  <g
     inkscape:groupmode="layer"
     id="layer3"
     inkscape:label="Layer 3"
     style="display:inline">
    <path
       fill="#793934"
       d="M 464,220 H 40 c -6.627,0 -12,-5.373 -12,-12 v -36 c 0,-26.51 21.49,-48 48,-48 h 48 V 72 c 0,-6.627 5.373,-12 12,-12 h 40 c 6.627,0 12,5.373 12,12 v 52 H 316 V 72 c 0,-6.627 5.373,-12 12,-12 h 40 c 6.627,0 12,5.373 12,12 v 52 h 48 c 26.51,0 48,21.49 48,48 v 36 c 0,6.627 -5.373,12 -12,12 z M 40,252 h 424 c 6.627,0 12,5.373 12,12 v 260 c 0,26.51 -21.49,48 -48,48 H 76 C 49.49,572 28,550.51 28,524 V 264 c 0,-6.627 5.373,-12 12,-12 z m 333.296,95.947 -28.169,-28.398 c -4.667,-4.705 -12.265,-4.736 -16.97,-0.068 L 222.12,424.665 176.14,378.313 c -4.667,-4.705 -12.266,-4.736 -16.971,-0.068 l -28.397,28.17 c -4.705,4.667 -4.736,12.265 -0.068,16.97 l 82.601,83.269 c 4.667,4.705 12.265,4.736 16.97,0.068 L 373.228,364.917 c 4.705,-4.667 4.736,-12.265 0.068,-16.97 z"
       id="path958"
       style="display:inline" />
  </g>
</svg>
