<?xml version="1.0" encoding="UTF-8" standalone="no"?>
<svg
   xmlns:dc="http://purl.org/dc/elements/1.1/"
   xmlns:cc="http://creativecommons.org/ns#"
   xmlns:rdf="http://www.w3.org/1999/02/22-rdf-syntax-ns#"
   xmlns:svg="http://www.w3.org/2000/svg"
   xmlns="http://www.w3.org/2000/svg"
   xmlns:sodipodi="http://sodipodi.sourceforge.net/DTD/sodipodi-0.dtd"
   xmlns:inkscape="http://www.inkscape.org/namespaces/inkscape"
   aria-hidden="true"
   focusable="false"
   data-prefix="fas"
   data-icon="hourglass-start"
   class="svg-inline--fa fa-hourglass-start fa-w-12"
   role="img"
   viewBox="0 0 504 632"
   version="1.1"
   id="svg4"
   sodipodi:docname="icon_hourglass-start.svg"
   width="504"
   height="632"
   inkscape:version="1.0.1 (3bc2e813f5, 2020-09-07)">
   <!-- Font Awesome Free 5.15.1 by @fontawesome - https://fontawesome.com License - https://fontawesome.com/license/free (Icons: CC BY 4.0, Fonts: SIL OFL 1.1, Code: MIT License) -->
  <metadata
     id="metadata10">
    <rdf:RDF>
      <cc:Work
         rdf:about="">
        <dc:format>image/svg+xml</dc:format>
        <dc:type
           rdf:resource="http://purl.org/dc/dcmitype/StillImage" />
        <dc:title></dc:title>
      </cc:Work>
    </rdf:RDF>
  </metadata>
  <defs
     id="defs8" />
  <sodipodi:namedview
     pagecolor="#ffffff"
     bordercolor="#666666"
     borderopacity="1"
     objecttolerance="10"
     gridtolerance="10"
     guidetolerance="10"
     inkscape:pageopacity="0"
     inkscape:pageshadow="2"
     inkscape:window-width="2348"
     inkscape:window-height="1450"
     id="namedview6"
     showgrid="false"
     fit-margin-bottom="60"
     fit-margin-top="60"
     lock-margins="true"
     fit-margin-left="60"
     fit-margin-right="60"
     inkscape:zoom="1.1132813"
     inkscape:cx="70.41213"
     inkscape:cy="255.87927"
     inkscape:window-x="3402"
     inkscape:window-y="258"
     inkscape:window-maximized="0"
     inkscape:current-layer="svg4" />
  <path
     fill="#793934"
     d="M 420,60 H 84 C 70.745,60 60,70.745 60,84 v 16 c 0,13.255 10.745,24 24,24 0,90.965 51.016,167.734 120.842,192 C 135.016,340.266 84,417.035 84,508 70.745,508 60,518.745 60,532 v 16 c 0,13.255 10.745,24 24,24 h 336 c 13.255,0 24,-10.745 24,-24 V 532 C 444,518.745 433.255,508 420,508 420,417.035 368.984,340.266 299.158,316 368.984,291.734 420,214.965 420,124 c 13.255,0 24,-10.745 24,-24 V 84 C 444,70.745 433.255,60 420,60 Z M 356,508 H 148 c 0,-77.458 46.204,-144 104,-144 57.786,0 104,66.517 104,144 z"
     id="path2" />
</svg>
