<?xml version="1.0" encoding="UTF-8" standalone="no"?>
<svg
   xmlns:dc="http://purl.org/dc/elements/1.1/"
   xmlns:cc="http://creativecommons.org/ns#"
   xmlns:rdf="http://www.w3.org/1999/02/22-rdf-syntax-ns#"
   xmlns:svg="http://www.w3.org/2000/svg"
   xmlns="http://www.w3.org/2000/svg"
   xmlns:sodipodi="http://sodipodi.sourceforge.net/DTD/sodipodi-0.dtd"
   xmlns:inkscape="http://www.inkscape.org/namespaces/inkscape"
   aria-hidden="true"
   focusable="false"
   data-prefix="fas"
   data-icon="hourglass-start"
   class="svg-inline--fa fa-hourglass-start fa-w-12"
   role="img"
   viewBox="0 0 504 632"
   version="1.1"
   id="svg4"
   sodipodi:docname="icon_dove-solid.svg"
   width="504"
   height="632"
   inkscape:version="1.0.1 (3bc2e813f5, 2020-09-07)">
   <!-- Font Awesome Free 5.15.1 by @fontawesome - https://fontawesome.com License - https://fontawesome.com/license/free (Icons: CC BY 4.0, Fonts: SIL OFL 1.1, Code: MIT License) -->
  <metadata
     id="metadata10">
    <rdf:RDF>
      <cc:Work
         rdf:about="">
        <dc:format>image/svg+xml</dc:format>
        <dc:type
           rdf:resource="http://purl.org/dc/dcmitype/StillImage" />
        <dc:title></dc:title>
      </cc:Work>
    </rdf:RDF>
  </metadata>
  <defs
     id="defs8" />
  <sodipodi:namedview
     pagecolor="#ffffff"
     bordercolor="#666666"
     borderopacity="1"
     objecttolerance="10"
     gridtolerance="10"
     guidetolerance="10"
     inkscape:pageopacity="0"
     inkscape:pageshadow="2"
     inkscape:window-width="2348"
     inkscape:window-height="1450"
     id="namedview6"
     showgrid="false"
     fit-margin-bottom="60"
     fit-margin-top="60"
     lock-margins="true"
     fit-margin-left="60"
     fit-margin-right="60"
     inkscape:zoom="1.1132813"
     inkscape:cx="70.41213"
     inkscape:cy="255.87927"
     inkscape:window-x="3402"
     inkscape:window-y="258"
     inkscape:window-maximized="0"
     inkscape:current-layer="layer2" />
  <g
     inkscape:groupmode="layer"
     id="layer2"
     inkscape:label="Layer 2"
     style="display:inline">
    <path
       fill="#793934"
       d="M 283.25702,229.25037 V 201.80983 C 255.71884,166.36175 237.2624,124.37091 230.42668,79.548141 c -2.05072,-13.183164 -18.55409,-18.35879 -27.14756,-8.105209 -20.60483,24.315625 -36.81524,52.830328 -47.75238,84.469928 33.39736,37.40115 78.12249,63.08392 127.73028,73.33751 z M 392.6285,128.47234 c -43.16268,0 -78.12249,35.05747 -78.12249,78.22015 v 58.00595 C 212.55616,258.64395 126.0355,195.853 86.974246,106.79335 81.603334,94.586722 64.318725,93.903154 58.654845,105.91448 42.444428,140.19073 33.265036,178.47075 33.265036,218.89913 c 0,69.13842 33.299717,133.68713 83.102794,181.53715 12.89022,12.40194 25.48746,22.65552 37.98706,32.03022 L 13.832065,467.62164 c -10.4488846,2.63662 -15.1362334,14.7456 -9.2770473,23.82735 16.9916423,26.26869 58.9824833,70.79849 149.6045823,74.50932 7.81223,0.29297 15.62449,-2.53897 21.58134,-7.71459 l 63.66982,-54.78341 h 75.09525 c 86.32535,0 156.24499,-69.82198 156.24499,-156.14733 V 190.97034 L 502,128.47234 Z m 0,93.84466 c -8.59346,0 -15.62449,-7.03103 -15.62449,-15.62451 0,-8.59348 7.03103,-15.62449 15.62449,-15.62449 8.59348,0 15.62451,7.03101 15.62451,15.62449 0,8.59348 -7.03103,15.62451 -15.62451,15.62451 z"
       id="path901"
       style="stroke-width:0.976529" />
  </g>
</svg>
