<svg xmlns="http://www.w3.org/2000/svg" viewBox="0 0 1440 320"><path fill="#5e6639" fill-opacity="1" d="M0,288L30,293.3C60,299,120,309,180,277.3C240,245,300,171,360,165.3C420,160,480,224,540,224C600,224,660,160,720,165.3C780,171,840,245,900,282.7C960,320,1020,320,1080,304C1140,288,1200,256,1260,250.7C1320,245,1380,267,1410,277.3L1440,288L1440,320L1410,320C1380,320,1320,320,1260,320C1200,320,1140,320,1080,320C1020,320,960,320,900,320C840,320,780,320,720,320C660,320,600,320,540,320C480,320,420,320,360,320C300,320,240,320,180,320C120,320,60,320,30,320L0,320Z"></path></svg>