<svg xmlns="http://www.w3.org/2000/svg" viewBox="0 0 1440 320"><path fill="#5e6639" fill-opacity="0.5" d="M0,224L30,213.3C60,203,120,181,180,181.3C240,181,300,203,360,202.7C420,203,480,181,540,176C600,171,660,181,720,197.3C780,213,840,235,900,218.7C960,203,1020,149,1080,128C1140,107,1200,117,1260,138.7C1320,160,1380,192,1410,208L1440,224L1440,320L1410,320C1380,320,1320,320,1260,320C1200,320,1140,320,1080,320C1020,320,960,320,900,320C840,320,780,320,720,320C660,320,600,320,540,320C480,320,420,320,360,320C300,320,240,320,180,320C120,320,60,320,30,320L0,320Z"></path></svg>