<?xml version="1.0" encoding="UTF-8" standalone="no"?>
<svg
   xmlns:dc="http://purl.org/dc/elements/1.1/"
   xmlns:cc="http://creativecommons.org/ns#"
   xmlns:rdf="http://www.w3.org/1999/02/22-rdf-syntax-ns#"
   xmlns:svg="http://www.w3.org/2000/svg"
   xmlns="http://www.w3.org/2000/svg"
   viewBox="0 0 1440 110.83599"
   version="1.1"
   id="svg4"
   width="1440"
   height="110.83599">
  <metadata
     id="metadata10">
    <rdf:RDF>
      <cc:Work
         rdf:about="">
        <dc:format>image/svg+xml</dc:format>
        <dc:type
           rdf:resource="http://purl.org/dc/dcmitype/StillImage" />
        <dc:title></dc:title>
      </cc:Work>
    </rdf:RDF>
  </metadata>
  <defs
     id="defs8" />
  <g
     id="layer1"
     transform="translate(0,-209.16401)">
    <path
       fill="#5e6639"
       fill-opacity="0.5"
       d="m 0,267.73209 30,-5.82569 c 30,-5.60792 90,-17.58597 150,-17.42264 60,-0.16333 120,11.81472 180,11.65138 60,0.16334 120,-11.81471 180,-14.53701 60,-2.72228 120,2.7223 180,11.59696 60,8.54797 120,20.52603 180,11.65138 60,-8.54799 120,-37.94868 180,-49.38229 60,-11.43361 120,-5.98902 180,5.8257 60,11.59694 120,29.01957 150,37.73089 l 30,8.71132 V 320 h -30 c -30,0 -90,0 -150,0 -60,0 -120,0 -180,0 -60,0 -120,0 -180,0 -60,0 -120,0 -180,0 -60,0 -120,0 -180,0 -60,0 -120,0 -180,0 -60,0 -120,0 -180,0 -60,0 -120,0 -150,0 H 0 Z"
       id="path2"
       style="stroke-width:0.737873" />
  </g>
</svg>
