<svg xmlns="http://www.w3.org/2000/svg" viewBox="0 0 1440 320"><path fill="#5e6639" fill-opacity="0.5" d="M0,224L30,208C60,192,120,160,180,149.3C240,139,300,149,360,138.7C420,128,480,96,540,85.3C600,75,660,85,720,117.3C780,149,840,203,900,229.3C960,256,1020,256,1080,229.3C1140,203,1200,149,1260,154.7C1320,160,1380,224,1410,256L1440,288L1440,320L1410,320C1380,320,1320,320,1260,320C1200,320,1140,320,1080,320C1020,320,960,320,900,320C840,320,780,320,720,320C660,320,600,320,540,320C480,320,420,320,360,320C300,320,240,320,180,320C120,320,60,320,30,320L0,320Z"></path></svg>